<svg width="156" height="230" viewBox="0 0 156 230" fill="none" xmlns="http://www.w3.org/2000/svg">
<path d="M40.6554 40.5395C39.8847 48.2658 32.221 54.708 28.0942 60.9136C23.1752 68.3105 20.5383 77.366 16.3799 85.1078C10.7202 95.6449 5.74167 105.102 2.68971 115.81C-3.31788 136.889 8.29673 157.517 12.5693 176.791C14.866 187.152 21.1525 196.715 29.2233 204.806C35.9277 211.527 52.265 229 62.2492 229C86.2978 229 104.02 204.419 118.139 187.12C126.286 177.139 135.876 167.384 140.298 154.578C146.752 135.884 146.097 115.947 151.871 97.1342C154.211 89.508 152.254 79.4979 152.435 71.6666C152.695 60.4698 154.976 49.3486 154.976 37.7097C154.976 22.6254 156.143 15.5918 142.274 9.41235C121.152 0.00163108 105.631 -4.62596 86.3835 12.5251C78.2704 19.7547 67.1542 27.1936 58.4386 32.3332C51.3861 36.4921 45.0121 42.1759 38.1149 45.633" stroke="black" stroke-opacity="0.5" stroke-width="0.5" stroke-linecap="round"/>
</svg>
